<svg width="33" height="33" viewBox="0 0 33 33" fill="none" xmlns="http://www.w3.org/2000/svg">
<path d="M9.53997 0.931723C7.83757 1.01204 6.67501 1.28372 5.65869 1.68308C4.60685 2.09299 3.71533 2.64306 2.82829 3.5333C1.94125 4.42353 1.39501 5.31568 0.98797 6.36911C0.59405 7.38765 0.32717 8.55116 0.25197 10.2545C0.17677 11.9578 0.16013 12.5054 0.16845 16.8503C0.17677 21.1952 0.19597 21.7398 0.27853 23.4467C0.35981 25.1487 0.63053 26.311 1.02989 27.3276C1.44045 28.3794 1.98989 29.2706 2.88045 30.158C3.77101 31.0453 4.66253 31.5903 5.71853 31.998C6.73613 32.3912 7.89997 32.6594 9.60301 32.7339C11.3061 32.8085 11.8542 32.8258 16.1979 32.8175C20.5416 32.8091 21.0885 32.7899 22.795 32.709C24.5016 32.628 25.6577 32.3554 26.6747 31.958C27.7265 31.5464 28.6184 30.998 29.5051 30.1071C30.3918 29.2162 30.9377 28.3234 31.3444 27.2694C31.7387 26.2518 32.0065 25.0879 32.0805 23.3862C32.155 21.6784 32.1726 21.1331 32.1643 16.7888C32.156 12.4446 32.1365 11.8999 32.0555 10.1937C31.9745 8.48748 31.7035 7.32877 31.3045 6.31151C30.8933 5.25968 30.3444 4.36913 29.4542 3.48114C28.564 2.59315 27.6705 2.04755 26.6168 1.6418C25.5985 1.24788 24.4353 0.979403 22.7323 0.905803C21.0292 0.832204 20.4811 0.813324 16.1358 0.821644C11.7905 0.829964 11.2465 0.848524 9.53997 0.931723ZM9.72685 29.8556C8.16685 29.7877 7.31981 29.5285 6.75533 29.3116C6.00781 29.0236 5.47533 28.6754 4.91277 28.1183C4.35021 27.5612 4.00461 27.0268 3.71277 26.2809C3.49357 25.7164 3.22957 24.8703 3.15661 23.3104C3.07725 21.6243 3.06061 21.1181 3.05133 16.8464C3.04205 12.5748 3.05837 12.0692 3.13229 10.3825C3.19885 8.8238 3.45965 7.97581 3.67629 7.41165C3.96429 6.66318 4.31117 6.13167 4.86957 5.56943C5.42797 5.0072 5.96077 4.66096 6.70733 4.36913C7.27117 4.14897 8.11725 3.88721 9.67661 3.81297C11.364 3.73297 11.8696 3.71697 16.1406 3.70769C20.4117 3.69841 20.9185 3.71441 22.6065 3.78865C24.1653 3.85649 25.0136 4.11473 25.5771 4.33265C26.3249 4.62064 26.8571 4.96656 27.4193 5.52591C27.9816 6.08527 28.3281 6.61614 28.62 7.3643C28.8405 7.92653 29.1022 8.77228 29.1758 10.3326C29.2561 12.0199 29.2744 12.5258 29.2821 16.7965C29.2897 21.0672 29.2747 21.5744 29.2008 23.2604C29.1326 24.8204 28.8741 25.6678 28.6568 26.2329C28.3688 26.9801 28.0216 27.5129 27.4629 28.0748C26.9041 28.6367 26.372 28.9829 25.6251 29.2748C25.0619 29.4946 24.2149 29.757 22.6568 29.8313C20.9694 29.9106 20.4638 29.9273 16.1912 29.9365C11.9185 29.9458 11.4145 29.9285 9.72717 29.8556M22.7704 8.26829C22.771 8.64805 22.8842 9.01909 23.0958 9.33449C23.3073 9.64989 23.6076 9.89548 23.9587 10.0402C24.3098 10.1849 24.696 10.2222 25.0683 10.1475C25.4407 10.0727 25.7825 9.88925 26.0505 9.62022C26.3185 9.3512 26.5008 9.00872 26.5742 8.63612C26.6476 8.26352 26.6088 7.87752 26.4628 7.52694C26.3168 7.17636 26.0701 6.87696 25.7539 6.66659C25.4378 6.45623 25.0663 6.34435 24.6865 6.34511C24.1774 6.34612 23.6896 6.54929 23.3302 6.90994C22.9709 7.27059 22.7695 7.75919 22.7704 8.26829ZM7.95117 16.8356C7.96013 21.3731 11.6453 25.0431 16.1819 25.0345C20.7185 25.0259 24.3912 21.3411 24.3825 16.8036C24.3739 12.266 20.6878 8.595 16.1505 8.60396C11.6133 8.61292 7.94253 12.2986 7.95117 16.8356ZM10.8331 16.8298C10.831 15.775 11.1418 14.7432 11.7261 13.865C12.3104 12.9867 13.142 12.3015 14.1158 11.8959C15.0895 11.4903 16.1617 11.3826 17.1967 11.5863C18.2317 11.79 19.183 12.2961 19.9304 13.0405C20.6777 13.7849 21.1876 14.7342 21.3954 15.7684C21.6032 16.8026 21.4998 17.8751 21.098 18.8505C20.6963 19.8258 20.0143 20.6601 19.1384 21.2479C18.2625 21.8357 17.2319 22.1505 16.1771 22.1526C15.4767 22.1541 14.7828 22.0176 14.1352 21.7509C13.4875 21.4841 12.8987 21.0925 12.4025 20.5982C11.9062 20.1039 11.5122 19.5167 11.2429 18.8701C10.9737 18.2235 10.8344 17.5302 10.8331 16.8298Z" fill="white"/>
</svg>
