<svg width="120" height="58" viewBox="0 0 120 58" fill="none" xmlns="http://www.w3.org/2000/svg">
<path d="M60.8389 20.4919L66.3947 10.8278L85.2624 9.61983L85.9225 8.43927L68.485 7.23127L72.5831 0.175404H104.928C114.884 0.175404 122.228 3.74452 119.367 14.1499C118.515 17.3346 114.472 25.2965 102.59 28.6185C105.12 28.9205 111.391 31.6934 110.291 38.8866C108.366 51.653 91.8359 57.7205 82.622 57.7205L44.419 57.748L42.5212 50.3626L62.5441 48.9624L63.2317 47.7819L41.5036 46.4641L39.1657 37.706L70.0527 35.894L70.7403 34.7409L15.2647 31.2816L17.9326 26.6692L77.6713 22.7981L78.3589 21.645L60.8389 20.4919ZM85.84 22.4137L91.3408 22.3863C95.0264 22.3588 98.8494 20.6841 100.252 17.3071C101.545 14.1499 99.8121 11.4593 97.5017 11.4867H92.1659L85.84 22.4137ZM79.4866 33.3682L72.8581 44.8717H79.1841C82.127 44.8717 87.3802 43.4166 89.003 39.2435C90.5157 35.3449 87.7378 33.3682 85.8125 33.3682H79.4866ZM31.2996 51.1314L27.449 57.693L0 57.748L2.66789 53.1356L31.2996 51.1314ZM33.2248 0.147949L55.3106 0.175404L56.9883 6.40762L30.612 4.76034L33.2248 0.147949ZM58.226 11.3495L60.6463 20.4919L22.9383 18.021L25.5787 13.436L58.226 11.3495ZM39.0282 37.706L34.2425 45.9973L7.64612 44.4873L10.314 39.8749L39.0282 37.706Z" fill="white"/>
</svg>
