<svg width="200" height="34" viewBox="0 0 200 34" fill="none" xmlns="http://www.w3.org/2000/svg">
<path fill-rule="evenodd" clip-rule="evenodd" d="M0 22.7759H8.82553C8.91745 26.0394 11.3997 28.2 14.9393 28.2C17.973 28.2 19.9495 26.8669 19.9495 24.7523C19.9495 22.4542 17.6513 21.7186 15.0312 21.0292L9.28511 19.5123C4.13702 18.133 0.781277 15.1912 0.781277 9.90495C0.781277 3.74552 6.15943 0.0683594 14.4335 0.0683594C22.8454 0.0683594 27.5801 3.60765 28.3155 10.3648H19.7197C19.398 7.23886 17.4213 5.5841 14.2496 5.5841C11.8133 5.5841 9.74497 6.77928 9.74497 8.84793C9.74497 10.5027 10.7563 11.56 13.7901 12.3413L19.5818 13.8581C23.6729 14.9155 29.143 16.8003 29.143 23.2814C29.143 29.6706 23.7189 33.716 14.8471 33.716C5.69986 33.716 0.459574 29.8547 0 22.7759ZM42.6122 19.2364H50.5645L46.7952 6.96325L42.6122 19.2364ZM54.8394 32.9806L52.3112 24.8901H40.7277L37.9696 32.9806H29.6956L41.0034 0.803534H53.2766L64.0329 32.9806H54.8394ZM79.3407 6.4576H88.764V0.803707H61.1838V6.4576H70.6071V32.9804H79.3407V6.4576ZM101.175 0.803672H92.4417V32.9804H101.175V0.803672ZM114.368 22.7759H105.542C106.002 29.8547 111.242 33.716 120.389 33.716C129.261 33.716 134.685 29.6706 134.685 23.2814C134.685 16.8003 129.215 14.9155 125.124 13.8581L119.332 12.3413C116.298 11.56 115.287 10.5027 115.287 8.84793C115.287 6.77928 117.355 5.5841 119.792 5.5841C122.963 5.5841 124.94 7.23885 125.262 10.3648H133.858C133.122 3.60765 128.388 0.0683594 119.976 0.0683594C111.702 0.0683594 106.323 3.74552 106.323 9.90495C106.323 15.1912 109.679 18.133 114.827 19.5123L120.573 21.0292C123.193 21.7186 125.492 22.4542 125.492 24.7523C125.492 26.8669 123.515 28.2 120.481 28.2C116.942 28.2 114.46 26.0394 114.368 22.7759ZM165.805 6.4576H147.832V14.6397H163.047V20.2936H147.832V32.9804H139.098V0.803707H165.805V6.4576ZM199.958 0.803672H191.363L184.054 13.4445L177.113 0.803672H166.54L178.492 20.8451V32.9804H187.547V20.6153L199.958 0.803672Z" fill="white"/>
</svg>
