<svg width="110" height="52" viewBox="0 0 110 52" fill="none" xmlns="http://www.w3.org/2000/svg">
<path fill-rule="evenodd" clip-rule="evenodd" d="M11.8445 14.2947H14.7418C15.0796 17.5572 17.133 19.4121 20.4518 19.4121C23.8557 19.4121 25.7677 18.0335 25.7677 15.6155C25.7677 13.84 24.4743 12.7718 21.7178 12.2376L18.6235 11.7323C14.798 11.1116 12.6327 9.14839 12.6327 6.27569C12.6327 2.83999 15.67 0.537444 20.1985 0.537444C24.8114 0.537444 28.0183 3.32356 28.2435 7.50991H25.4588C25.2899 4.4712 23.3772 2.78941 20.1422 2.78941C17.0767 2.78941 15.361 4.05259 15.361 6.27569C15.361 7.90692 16.6271 8.86684 19.3547 9.28548L22.3364 9.76188C26.3307 10.4115 28.665 12.4109 28.665 15.3052C28.665 19.1596 25.3462 21.7219 20.3962 21.7219C15.6426 21.7219 12.2105 18.7409 11.8445 14.2947ZM29.8523 6.24679H32.6363L34.8305 14.5473C35.2527 16.1497 35.7869 19.0802 35.7869 19.0802H35.8432C35.8432 19.0802 36.4054 16.1497 36.8558 14.5473L39.1627 6.24679H41.6376L43.9156 14.5473C44.3097 16.0631 44.9564 19.0802 44.9564 19.0802H45.0127C45.0127 19.0802 45.6039 16.0631 45.9972 14.5473L48.2189 6.24679H50.9198L46.3343 21.3538H43.6904L41.328 12.8006C40.8776 11.1982 40.3998 8.63594 40.3998 8.63594H40.3435C40.3435 8.63594 39.8657 11.1982 39.4153 12.8006L37.081 21.3538H34.409L29.8523 6.24679ZM50.9407 13.84C50.9407 9.14116 53.838 5.99418 58.1976 5.99418C62.5571 5.99418 65.4544 9.14116 65.4544 13.84C65.4544 18.5677 62.5571 21.7219 58.1976 21.7219C53.838 21.7219 50.9407 18.5677 50.9407 13.84ZM62.7824 13.84C62.7824 10.1589 61.123 8.07293 58.1976 8.07293C55.2722 8.07293 53.6128 10.1589 53.6128 13.84C53.6128 17.5283 55.2722 19.5854 58.1976 19.5854C61.123 19.5854 62.7824 17.5283 62.7824 13.84ZM67.4898 19.34C70.984 10.6641 71.3694 9.3938 71.3103 8.80194C71.2511 8.32556 70.836 8.15231 70.5697 8.15231C69.5924 8.15231 67.6681 10.3105 66.9276 11.1405C66.6901 11.4364 66.3653 11.2849 66.5421 10.9024C67.1051 9.68976 70.185 5.80651 72.346 5.80651C73.4417 5.80651 74.0934 6.87479 73.2641 9.45156C72.7906 10.8157 72.2868 12.3531 71.7541 14.0132C71.6358 14.3669 71.9909 14.6917 72.1388 14.3669C74.1822 10.4259 82.6213 2.11095 87.3288 1.45413C90.0832 1.07158 89.0171 4.74551 86.7074 4.56506C81.5257 4.21139 73.2937 11.6746 69.326 20.3793C69.0893 20.9134 68.7926 21.3538 68.2304 21.6209C67.3123 22.0684 66.5421 21.6786 67.4898 19.34ZM78.6602 14.4246C80.2293 8.94624 83.7531 5.66219 86.9218 5.66219C88.6389 5.66219 89.1715 6.39842 89.5866 6.93254C90.0601 7.46666 90.2968 7.22845 90.4448 6.63658L91.3037 3.49683C91.5404 2.60904 90.9782 2.19759 90.0896 2.11097C89.3794 2.04601 89.3794 1.54799 90.2672 1.39641C91.57 1.1871 92.8137 0.862251 93.5838 0.450833C93.9981 0.212644 94.3244 0.364244 94.1764 0.74679C92.7841 4.77435 92.1626 7.02635 91.7187 8.62149L90.2672 13.7172C89.8233 15.3124 89.2011 17.8026 89.0532 18.7193C88.9052 19.6359 89.4386 20.0545 90.3264 20.1412C91.0374 20.1989 91.0374 20.7041 90.1488 20.8557C88.846 21.0578 87.6024 21.3827 86.8322 21.8013C86.4179 22.0395 86.0628 21.8879 86.2404 21.5053C86.4771 20.8196 87.4248 18.481 87.6616 17.6871C87.7799 17.355 87.3952 17.2684 87.1585 17.6871C85.6774 20.3216 83.6347 21.8013 81.4434 21.8013C79.0745 21.8013 77.2686 19.3399 78.6602 14.4246ZM88.4021 13.8039L89.1427 11.0828C89.8825 8.32558 88.9052 6.60768 86.8034 6.60768C84.5225 6.60768 82.3319 9.12673 81.1467 13.2986C79.9334 17.5355 80.9988 20.0834 83.2796 20.0256C85.1151 19.9607 87.3952 17.5355 88.4021 13.8039ZM92.5676 18.3367C93.8415 18.3367 94.9365 20.3793 96.4464 20.3793C97.8388 20.3793 98.8457 19.4915 98.9633 17.8603C99.1705 15.5794 96.6839 12.8295 96.8607 10.7579C97.2166 6.99745 100.325 5.45284 102.073 5.45284C105.597 5.45284 104.974 9.0112 103.524 9.0112C102.546 9.0112 102.369 6.36952 100.711 6.36952C99.6151 6.36952 98.8153 7.43774 98.7561 8.23892C98.5194 10.758 101.155 13.9266 100.918 16.5611C100.563 20.6176 96.5352 21.7724 94.2847 21.7724C90.8497 21.7724 90.9392 18.3367 92.5676 18.3367ZM0.664783 42.6825C2.66196 42.4804 3.64646 41.6143 4.34948 40.4305C6.68446 36.4318 9.6373 31.1484 11.7752 27.1497C12.479 25.9082 11.6626 25.071 10.3403 24.9266C9.66617 24.8689 9.49655 24.3925 10.3129 24.2554C11.4374 24.0533 12.5908 23.8007 13.5191 23.3532C13.8568 23.1799 14.2221 23.2665 14.2502 23.6346L14.7569 34.1583C14.8125 35.508 15.1503 38.9364 15.3192 40.4305C15.4318 41.6143 16.1629 42.4804 18.1038 42.6825C18.9194 42.7619 18.6668 43.3537 17.8786 43.296C16.8097 43.2166 15.7977 43.1012 14.6725 43.1012C13.5472 43.1012 11.9723 43.296 10.8189 43.296C10.0032 43.296 10.1721 42.7619 11.0441 42.6825C12.6471 42.5093 13.2094 41.8958 13.182 40.4017C13.1531 39.5861 13.0968 38.0631 12.9849 36.6628C12.9568 36.3236 12.7879 36.1504 12.4219 36.1504H8.17496C7.80901 36.1504 7.52751 36.3236 7.35934 36.6845C6.57187 38.1497 5.86813 39.4706 5.41846 40.4017C4.68729 41.8958 4.63099 42.5093 6.17778 42.6825C6.9934 42.7619 6.90895 43.296 6.09333 43.296C4.93992 43.296 4.09615 43.1012 3.39313 43.1012C2.83086 43.1012 1.7056 43.2166 0.581058 43.296C-0.207132 43.3537 -0.207133 42.7619 0.664783 42.6825ZM12.1693 35.508C12.619 35.508 12.9005 35.2265 12.8723 34.8007C12.8723 34.4398 12.8442 34.1294 12.816 33.8768L12.4219 28.4706C12.3938 28.1097 12.1693 28.023 11.8597 28.4994L8.37199 34.8007C8.14679 35.2265 8.28755 35.508 8.70907 35.508H12.1693ZM38.6588 41.3833C41.4435 41.3833 43.2155 38.6838 43.2155 32.8879C43.2155 31.2567 42.7939 30.5277 41.9495 30.5277C39.5308 30.5277 34.2993 38.4889 33.0332 42.2278C32.2176 44.5663 30.6427 43.8879 31.0079 41.8958C31.9643 36.9371 33.9615 32.4692 36.4646 28.4994C39.5026 23.6923 29.8834 23.714 28.8426 27.2363C28.3929 28.6943 28.1388 29.8203 27.2958 33.2271C26.5639 36.1215 25.7483 39.6727 25.5801 40.4017C25.2704 41.8958 25.7483 42.5093 27.2958 42.6825C28.1677 42.7619 27.9706 43.296 27.155 43.296C26.0016 43.296 25.0452 43.1012 23.6392 43.1012C22.5139 43.1012 21.1923 43.2166 20.0952 43.296C19.3078 43.3537 19.4196 42.7619 20.2353 42.6825C22.2324 42.4804 23.1325 41.6143 23.4422 40.4305C23.8355 38.9364 24.7919 35.508 25.3549 33.2271C26.1705 29.9647 26.6483 27.7993 26.9298 26.4712C27.155 25.2947 26.8454 24.2265 25.9172 24.2265C24.3422 24.2265 22.3169 25.7711 20.5731 27.4312C19.673 28.3045 19.2226 28.1313 19.8419 27.2941C21.9235 24.3059 23.2733 22.4797 23.8918 22.4797C24.3422 22.4797 23.8355 23.8295 28.1951 23.8295C38.4618 23.8295 37.6462 23.6635 44.2 23.6635C47.8847 23.6635 48.7566 26.6444 46.4498 26.2763C44.0874 25.9154 43.637 24.4214 41.7813 24.4214C38.2084 24.4214 35.143 32.859 34.2993 36.403C34.1867 36.9371 34.4963 36.9949 34.7489 36.6628C37.9277 32.693 41.2464 28.5283 43.2436 28.5283C44.706 28.5283 45.5779 29.4016 45.5779 31.0329C45.5779 36.5762 40.5997 43.7219 37.4773 43.7219C35.8742 43.7219 36.9713 41.3833 38.6588 41.3833ZM47.3665 43.0434C46.8886 42.4299 46.8042 42.3722 46.4382 42.3722C45.6508 42.3722 45.0596 42.7907 44.301 43.296C43.9069 43.5486 43.1476 43.3827 43.9351 42.5671C45.0322 41.4411 45.7915 40.9935 46.0449 40.2356C47.0849 37.8682 49.7289 29.9069 50.9667 26.6733C51.586 25.0421 49.8133 25.7711 48.5199 26.8393C47.5354 27.6261 47.3102 26.9837 48.0695 26.2474C49.6444 24.7317 51.3327 23.9739 52.3735 23.5191C53.3017 23.1005 54.1166 23.4614 53.1884 25.7422C50.3481 32.693 49.9822 33.9273 48.9414 37.1969C47.9287 40.4017 48.0695 40.6543 49.4199 42.8197C52.289 47.4319 58.1673 50.052 61.0645 50.052C62.7239 50.052 64.7774 49.5179 66.0434 48.7889C67.2805 48.0526 67.5339 48.3918 66.296 49.3735C65.5085 49.9942 62.8365 51.4883 60.0518 51.4883C57.3798 51.4883 51.8668 49.3734 47.3665 43.0434ZM66.4959 36.4319H54.9921C55.2455 39.7232 56.9049 41.5277 59.7177 41.5277C61.7704 41.5277 63.1772 40.5676 63.6268 38.8787H66.187C65.6522 41.7514 63.0646 43.6641 59.7177 43.6641C55.2729 43.6641 52.3201 40.4883 52.3201 35.6451C52.3201 31.0618 55.1892 27.9365 59.5206 27.9365C63.7113 27.9365 66.4959 31.004 66.4959 35.5874V36.4319ZM63.7676 34.548C63.7676 31.5959 62.2208 29.9646 59.5206 29.9646C56.9049 29.9646 55.3018 31.6247 55.0203 34.548H63.7676ZM69.085 40.6254V30.2172H66.7226V28.1891H69.085V24.4214H71.6733V28.1891H74.7106V30.2172H71.6733V39.9253C71.6733 40.7121 72.0111 41.2461 73.0512 41.2461C73.5016 41.2461 73.9794 41.1884 74.5424 41.1018V43.296C74.0639 43.4115 73.1919 43.4981 72.32 43.4981C70.4362 43.4981 69.085 42.4588 69.085 40.6254ZM76.7503 43.296H79.3661V28.1891H76.7503V43.296ZM76.7503 25.8577H79.3661V22.819H76.7503V25.8577ZM81.4261 35.7895C81.4261 31.0907 84.2944 27.9365 88.5977 27.9365C92.1698 27.9365 94.8701 30.1018 95.3205 33.3643H92.7328C92.3669 31.2278 90.8483 30.044 88.5703 30.044C85.7005 30.044 84.0981 32.1011 84.0981 35.7606C84.0981 39.4706 85.7005 41.5277 88.5703 41.5277C91.0446 41.5277 92.5358 40.1779 92.7328 37.8104H95.3205C95.1516 41.3328 92.4232 43.6641 88.5703 43.6641C84.2944 43.6641 81.4261 40.5172 81.4261 35.7895ZM96.8023 38.2652H99.4461C99.7276 40.3728 101.19 41.5566 103.441 41.5566C105.887 41.5566 107.293 40.7121 107.293 39.1314C107.293 37.926 106.506 37.3629 104.115 36.9154L101.443 36.3813C98.715 35.8472 97.2808 34.4398 97.2808 32.3538C97.2808 29.7121 99.6706 27.9365 103.243 27.9365C106.787 27.9365 109.319 29.9647 109.544 32.9745H106.928C106.675 31.004 105.353 29.9069 103.243 29.9069C101.022 29.9069 99.8402 30.7225 99.8402 32.296C99.8402 33.0827 100.628 33.7612 102.118 34.0427L104.538 34.4902C108.362 35.2553 109.909 36.4896 109.909 38.8787C109.909 41.7514 107.293 43.6641 103.441 43.6641C99.7277 43.6641 97.083 41.4988 96.8023 38.2652Z" fill="white"/>
</svg>
